# xmcd CD Database Entry
#
# Track frame offsets:
# 150
# 21608
# 51976
# 88049
# 104814
# 161933
# 210749
# 288483
# 307604
#
# Disc length: 4182 seconds
#
# Revision: 1
# Processed by: cddbd v1.4PL0 Copyright (c) Steve Scherf et al.
# Submitted via: tcd 2.0b
#
DISCID=85105409
DTITLE=Albert Collins - Molten Ice
DYEAR=1900
DGENRE=
TTITLE0=Intro
TTITLE1=All About My Girl
TTITLE2=I've Got A Mind To Travel
TTITLE3=Things That I Used To Do
TTITLE4=Frosty
TTITLE5=Wah Heat
TTITLE6=Can't You See What You're Doing To Me.
TTITLE7=Cold Tremor
TTITLE8=Johnny B. Cool
EXTD=Toronto, 1973, with the Moe Peters Band
EXTT0=
EXTT1=
EXTT2=
EXTT3=
EXTT4=
EXTT5=
EXTT6=
EXTT7=
EXTT8=
PLAYORDER=
